<mxfile host="Electron" agent="Mozilla/5.0 (Windows NT 10.0; Win64; x64) AppleWebKit/537.36 (KHTML, like Gecko) draw.io/27.0.9 Chrome/134.0.6998.205 Electron/35.4.0 Safari/537.36" version="27.0.9">
  <diagram id="R2lEEEUBdFMjLlhIrx00" name="Page-1">
    <mxGraphModel dx="1042" dy="1822" grid="1" gridSize="10" guides="1" tooltips="1" connect="1" arrows="1" fold="1" page="1" pageScale="1" pageWidth="850" pageHeight="1100" math="0" shadow="0" extFonts="Permanent Marker^https://fonts.googleapis.com/css?family=Permanent+Marker">
      <root>
        <mxCell id="0" />
        <mxCell id="1" parent="0" />
        <mxCell id="-DFjEMZiDAIH7Pz5Sr5s-1" value="organization" style="swimlane;childLayout=stackLayout;horizontal=1;startSize=50;horizontalStack=0;rounded=1;fontSize=14;fontStyle=0;strokeWidth=2;resizeParent=0;resizeLast=1;shadow=0;dashed=0;align=center;arcSize=4;whiteSpace=wrap;html=1;" parent="1" vertex="1">
          <mxGeometry x="360" y="30" width="150" height="130" as="geometry" />
        </mxCell>
        <mxCell id="-DFjEMZiDAIH7Pz5Sr5s-2" value="organizationkey [PK]&lt;br&gt;ein [U]&lt;br&gt;orgname [R]&lt;br&gt;email [R]&lt;br&gt;website&amp;nbsp;" style="align=left;strokeColor=none;fillColor=none;spacingLeft=4;fontSize=12;verticalAlign=top;resizable=0;rotatable=0;part=1;html=1;" parent="-DFjEMZiDAIH7Pz5Sr5s-1" vertex="1">
          <mxGeometry y="50" width="150" height="80" as="geometry" />
        </mxCell>
        <mxCell id="-DFjEMZiDAIH7Pz5Sr5s-5" value="trademark" style="swimlane;childLayout=stackLayout;horizontal=1;startSize=50;horizontalStack=0;rounded=1;fontSize=14;fontStyle=0;strokeWidth=2;resizeParent=0;resizeLast=1;shadow=0;dashed=0;align=center;arcSize=4;whiteSpace=wrap;html=1;" parent="1" vertex="1">
          <mxGeometry x="627.5" y="199" width="145" height="137.5" as="geometry" />
        </mxCell>
        <mxCell id="y8T7dQpSe2Xx7qKuwX4q-5" value="trademarkkey [PK]&lt;br&gt;trademark [R, U]&lt;br&gt;registration [C]&lt;br&gt;expiry [C]&lt;br&gt;organizationkey [FK]" style="align=left;strokeColor=none;fillColor=none;spacingLeft=4;fontSize=12;verticalAlign=top;resizable=0;rotatable=0;part=1;html=1;" parent="-DFjEMZiDAIH7Pz5Sr5s-5" vertex="1">
          <mxGeometry y="50" width="145" height="87.5" as="geometry" />
        </mxCell>
        <mxCell id="-DFjEMZiDAIH7Pz5Sr5s-7" value="legaldocument" style="swimlane;childLayout=stackLayout;horizontal=1;startSize=50;horizontalStack=0;rounded=1;fontSize=14;fontStyle=0;strokeWidth=2;resizeParent=0;resizeLast=1;shadow=0;dashed=0;align=center;arcSize=4;whiteSpace=wrap;html=1;" parent="1" vertex="1">
          <mxGeometry x="70" y="480" width="150" height="150" as="geometry" />
        </mxCell>
        <mxCell id="-DFjEMZiDAIH7Pz5Sr5s-8" value="&lt;font style=&quot;font-size: 10px;&quot;&gt;documentkey [PK]&lt;br&gt;issue [C]&lt;br&gt;expiry [C]&lt;/font&gt;&lt;div style=&quot;font-size: 10px;&quot;&gt;&lt;font style=&quot;font-size: 10px;&quot;&gt;casenumber [R, U]&lt;br&gt;organizationkey [FK]&lt;/font&gt;&lt;/div&gt;&lt;div style=&quot;font-size: 10px;&quot;&gt;&lt;font style=&quot;font-size: 10px;&quot;&gt;trademarkkey [FK]&lt;/font&gt;&lt;/div&gt;" style="align=left;strokeColor=none;fillColor=none;spacingLeft=4;fontSize=12;verticalAlign=top;resizable=0;rotatable=0;part=1;html=1;" parent="-DFjEMZiDAIH7Pz5Sr5s-7" vertex="1">
          <mxGeometry y="50" width="150" height="100" as="geometry" />
        </mxCell>
        <mxCell id="-DFjEMZiDAIH7Pz5Sr5s-9" value="category" style="swimlane;childLayout=stackLayout;horizontal=1;startSize=50;horizontalStack=0;rounded=1;fontSize=14;fontStyle=0;strokeWidth=2;resizeParent=0;resizeLast=1;shadow=0;dashed=0;align=center;arcSize=4;whiteSpace=wrap;html=1;" parent="1" vertex="1">
          <mxGeometry x="70" y="198.75" width="145" height="140" as="geometry" />
        </mxCell>
        <mxCell id="-DFjEMZiDAIH7Pz5Sr5s-10" value="categorykey [PK]&lt;br&gt;name [R, U]&lt;br&gt;description [C, M]&lt;br&gt;organizationkey [FK]" style="align=left;strokeColor=none;fillColor=none;spacingLeft=4;fontSize=12;verticalAlign=top;resizable=0;rotatable=0;part=1;html=1;" parent="-DFjEMZiDAIH7Pz5Sr5s-9" vertex="1">
          <mxGeometry y="50" width="145" height="90" as="geometry" />
        </mxCell>
        <mxCell id="-DFjEMZiDAIH7Pz5Sr5s-12" value="user" style="swimlane;childLayout=stackLayout;horizontal=1;startSize=50;horizontalStack=0;rounded=1;fontSize=14;fontStyle=0;strokeWidth=2;resizeParent=0;resizeLast=1;shadow=0;dashed=0;align=center;arcSize=4;whiteSpace=wrap;html=1;" parent="1" vertex="1">
          <mxGeometry x="625" y="460" width="150" height="150" as="geometry" />
        </mxCell>
        <mxCell id="-DFjEMZiDAIH7Pz5Sr5s-13" value="userkey [PK]&lt;br&gt;username [U, R]&lt;br&gt;password [R]&lt;br&gt;emailaddress [R, U]&lt;br&gt;organizationkey [FK]" style="align=left;strokeColor=none;fillColor=none;spacingLeft=4;fontSize=12;verticalAlign=top;resizable=0;rotatable=0;part=1;html=1;" parent="-DFjEMZiDAIH7Pz5Sr5s-12" vertex="1">
          <mxGeometry y="50" width="150" height="100" as="geometry" />
        </mxCell>
        <mxCell id="y8T7dQpSe2Xx7qKuwX4q-3" value="" style="endArrow=ERmandOne;html=1;rounded=0;exitX=1;exitY=0.36;exitDx=0;exitDy=0;exitPerimeter=0;startArrow=ERmandOne;startFill=0;jumpSize=11;targetPerimeterSpacing=9;sourcePerimeterSpacing=8;strokeWidth=1;endFill=0;entryX=0.5;entryY=0;entryDx=0;entryDy=0;endSize=13;startSize=13;" parent="1" source="-DFjEMZiDAIH7Pz5Sr5s-2" target="-DFjEMZiDAIH7Pz5Sr5s-5" edge="1">
          <mxGeometry width="50" height="50" relative="1" as="geometry">
            <mxPoint x="470" y="122.72999999999996" as="sourcePoint" />
            <mxPoint x="564.815" y="122.5025" as="targetPoint" />
            <Array as="points">
              <mxPoint x="700" y="110" />
            </Array>
          </mxGeometry>
        </mxCell>
        <mxCell id="GsrGN23cM2aMst2ddtZQ-23" value="&lt;font style=&quot;font-size: 14px;&quot;&gt;Conceptual Model&lt;/font&gt;" style="text;html=1;align=center;verticalAlign=middle;resizable=0;points=[];autosize=1;strokeColor=none;fillColor=none;" parent="1" vertex="1">
          <mxGeometry x="380" y="690" width="140" height="30" as="geometry" />
        </mxCell>
        <mxCell id="zHdhFgsZa0hecAP6fTHH-1" value="" style="endArrow=ERoneToMany;html=1;rounded=0;exitX=0.5;exitY=0;exitDx=0;exitDy=0;entryX=-0.008;entryY=0.37;entryDx=0;entryDy=0;entryPerimeter=0;endSize=13;startSize=13;endFill=0;startArrow=ERzeroToMany;startFill=0;" parent="1" source="-DFjEMZiDAIH7Pz5Sr5s-9" edge="1">
          <mxGeometry width="50" height="50" relative="1" as="geometry">
            <mxPoint x="134.85499999999996" y="198.74999999999997" as="sourcePoint" />
            <mxPoint x="359.99999999999994" y="110.44000000000003" as="targetPoint" />
            <Array as="points">
              <mxPoint x="143" y="110" />
            </Array>
          </mxGeometry>
        </mxCell>
        <mxCell id="zHdhFgsZa0hecAP6fTHH-2" value="" style="endArrow=ERmandOne;html=1;rounded=0;exitX=0.5;exitY=0;exitDx=0;exitDy=0;entryX=0.5;entryY=1;entryDx=0;entryDy=0;endSize=13;startSize=13;endFill=0;startArrow=ERoneToMany;startFill=0;" parent="1" source="-DFjEMZiDAIH7Pz5Sr5s-7" target="y8T7dQpSe2Xx7qKuwX4q-5" edge="1">
          <mxGeometry width="50" height="50" relative="1" as="geometry">
            <mxPoint x="400" y="390" as="sourcePoint" />
            <mxPoint x="810" y="380" as="targetPoint" />
            <Array as="points">
              <mxPoint x="145" y="390" />
              <mxPoint x="700" y="390" />
            </Array>
          </mxGeometry>
        </mxCell>
        <mxCell id="zHdhFgsZa0hecAP6fTHH-3" value="" style="endArrow=ERzeroToOne;html=1;rounded=0;entryX=0.195;entryY=1;entryDx=0;entryDy=0;exitX=0;exitY=0.25;exitDx=0;exitDy=0;endSize=13;startSize=13;endFill=0;startArrow=ERoneToMany;startFill=0;entryPerimeter=0;" parent="1" source="-DFjEMZiDAIH7Pz5Sr5s-13" target="-DFjEMZiDAIH7Pz5Sr5s-2" edge="1">
          <mxGeometry width="50" height="50" relative="1" as="geometry">
            <mxPoint x="435" y="530" as="sourcePoint" />
            <mxPoint x="450" y="340" as="targetPoint" />
            <Array as="points">
              <mxPoint x="389" y="535" />
              <mxPoint x="390" y="350" />
            </Array>
          </mxGeometry>
        </mxCell>
        <mxCell id="zHdhFgsZa0hecAP6fTHH-5" value="" style="endArrow=ERoneToMany;html=1;rounded=0;entryX=0.5;entryY=1;entryDx=0;entryDy=0;exitX=0.75;exitY=1;exitDx=0;exitDy=0;endSize=13;startSize=13;endFill=0;startArrow=ERmandOne;startFill=0;" parent="1" source="-DFjEMZiDAIH7Pz5Sr5s-2" target="-DFjEMZiDAIH7Pz5Sr5s-8" edge="1">
          <mxGeometry width="50" height="50" relative="1" as="geometry">
            <mxPoint x="400" y="390" as="sourcePoint" />
            <mxPoint x="450" y="340" as="targetPoint" />
            <Array as="points">
              <mxPoint x="473" y="660" />
              <mxPoint x="145" y="660" />
            </Array>
          </mxGeometry>
        </mxCell>
        <mxCell id="zHdhFgsZa0hecAP6fTHH-7" value="has&amp;nbsp;" style="text;html=1;align=center;verticalAlign=middle;resizable=0;points=[];autosize=1;strokeColor=none;fillColor=none;" parent="1" vertex="1">
          <mxGeometry x="575" y="80" width="50" height="30" as="geometry" />
        </mxCell>
        <mxCell id="zHdhFgsZa0hecAP6fTHH-8" value="belongs to" style="text;html=1;align=center;verticalAlign=middle;resizable=0;points=[];autosize=1;strokeColor=none;fillColor=none;" parent="1" vertex="1">
          <mxGeometry x="560" y="110" width="80" height="30" as="geometry" />
        </mxCell>
        <mxCell id="zHdhFgsZa0hecAP6fTHH-9" value="has" style="text;html=1;align=center;verticalAlign=middle;resizable=0;points=[];autosize=1;strokeColor=none;fillColor=none;" parent="1" vertex="1">
          <mxGeometry x="650" y="340" width="40" height="30" as="geometry" />
        </mxCell>
        <mxCell id="zHdhFgsZa0hecAP6fTHH-10" value="is associated" style="text;html=1;align=center;verticalAlign=middle;resizable=0;points=[];autosize=1;strokeColor=none;fillColor=none;" parent="1" vertex="1">
          <mxGeometry x="50" y="440" width="90" height="30" as="geometry" />
        </mxCell>
        <mxCell id="zHdhFgsZa0hecAP6fTHH-11" value="has&amp;nbsp;" style="text;html=1;align=center;verticalAlign=middle;resizable=0;points=[];autosize=1;strokeColor=none;fillColor=none;" parent="1" vertex="1">
          <mxGeometry x="470" y="170" width="50" height="30" as="geometry" />
        </mxCell>
        <mxCell id="zHdhFgsZa0hecAP6fTHH-12" value="represents" style="text;html=1;align=center;verticalAlign=middle;resizable=0;points=[];autosize=1;strokeColor=none;fillColor=none;" parent="1" vertex="1">
          <mxGeometry x="150" y="630" width="80" height="30" as="geometry" />
        </mxCell>
        <mxCell id="zHdhFgsZa0hecAP6fTHH-13" value="falls under" style="text;html=1;align=center;verticalAlign=middle;resizable=0;points=[];autosize=1;strokeColor=none;fillColor=none;" parent="1" vertex="1">
          <mxGeometry x="250" y="80" width="80" height="30" as="geometry" />
        </mxCell>
        <mxCell id="zHdhFgsZa0hecAP6fTHH-14" value="has" style="text;html=1;align=center;verticalAlign=middle;resizable=0;points=[];autosize=1;strokeColor=none;fillColor=none;" parent="1" vertex="1">
          <mxGeometry x="100" y="120" width="40" height="30" as="geometry" />
        </mxCell>
        <mxCell id="zHdhFgsZa0hecAP6fTHH-15" value="is associated with" style="text;html=1;align=center;verticalAlign=middle;resizable=0;points=[];autosize=1;strokeColor=none;fillColor=none;" parent="1" vertex="1">
          <mxGeometry x="500" y="500" width="120" height="30" as="geometry" />
        </mxCell>
        <mxCell id="zHdhFgsZa0hecAP6fTHH-16" value="contains" style="text;html=1;align=center;verticalAlign=middle;resizable=0;points=[];autosize=1;strokeColor=none;fillColor=none;" parent="1" vertex="1">
          <mxGeometry x="320" y="168.75" width="70" height="30" as="geometry" />
        </mxCell>
        <mxCell id="IGOjUQjk2GTCFpAWiwP7-1" value="Trademark Traverser Database Management System" style="rounded=0;whiteSpace=wrap;html=1;" parent="1" vertex="1">
          <mxGeometry x="320" y="-60" width="230" height="60" as="geometry" />
        </mxCell>
      </root>
    </mxGraphModel>
  </diagram>
</mxfile>
